<svg width="320" height="78" viewBox="0 0 320 78" fill="none" xmlns="http://www.w3.org/2000/svg">
<rect width="320" height="78" rx="4" fill="#2F80ED"/>
<path d="M116.696 21.384V22.44H122.088C121.816 25.848 119.896 28.6 116.04 30.44L116.744 31.512C121.512 29.176 123.416 25.528 123.416 21.384H116.696ZM126.312 19.832V34.184H127.624V19.832H126.312ZM140.551 24.984H133.575V23.128H140.551V24.984ZM141.847 20.296H140.551V22.12H133.575V20.296H132.279V26.024H141.847V20.296ZM133.495 29.96H132.199V33.864H142.119V32.792H133.495V29.96ZM130.535 27.416V28.472H136.503V31.256H137.815V28.472H143.575V27.416H130.535ZM149.984 24.968C152.4 24.744 154.592 23.8 155.36 22.328C156.144 23.816 158.32 24.744 160.736 24.968L161.152 23.976C158.656 23.768 156.384 22.728 156.224 21.304H160.656V20.28H150.064V21.304H154.496C154.336 22.728 152.048 23.768 149.552 23.976L149.984 24.968ZM155.344 33.368C153.44 33.368 152.384 33.032 152.384 32.392C152.384 31.72 153.44 31.4 155.344 31.4C157.248 31.4 158.32 31.72 158.32 32.392C158.32 33.032 157.248 33.368 155.344 33.368ZM155.344 30.472C152.576 30.472 151.04 31.128 151.04 32.392C151.04 33.624 152.576 34.264 155.344 34.264C158.112 34.264 159.664 33.624 159.664 32.392C159.664 31.128 158.112 30.472 155.344 30.472ZM156.016 27.416H154.704V28.76H150.064V29.768H160.64V28.76H156.016V27.416ZM156 25.784V24.088H154.688V25.784H148.864V26.84H161.856V25.784H156ZM170.062 21.384C172.318 21.384 173.758 22.056 173.758 23.192C173.758 24.328 172.318 24.984 170.062 24.984C167.806 24.984 166.366 24.328 166.366 23.192C166.366 22.056 167.806 21.384 170.062 21.384ZM170.062 26.04C173.134 26.04 175.102 24.984 175.102 23.192C175.102 21.4 173.134 20.328 170.062 20.328C166.99 20.328 165.022 21.4 165.022 23.192C165.022 24.984 166.99 26.04 170.062 26.04ZM166.558 29.704H165.246V33.864H175.118V32.792H166.558V29.704ZM163.566 27.384V28.44H176.542V27.384H163.566ZM193.655 19.832H192.343V27.192H193.655V19.832ZM183.479 23.544C183.479 22.296 184.519 21.416 185.911 21.416C187.319 21.416 188.343 22.296 188.343 23.544C188.343 24.776 187.319 25.656 185.911 25.656C184.519 25.656 183.479 24.776 183.479 23.544ZM189.623 23.544C189.623 21.64 188.055 20.344 185.911 20.344C183.767 20.344 182.215 21.64 182.215 23.544C182.215 25.432 183.767 26.712 185.911 26.712C188.055 26.712 189.623 25.432 189.623 23.544ZM185.687 32.952V31.368H193.655V27.896H184.359V28.936H192.359V30.392H184.391V33.992H194.135V32.952H185.687ZM207.03 19.832V34.216H208.342V19.832H207.03ZM200.774 20.936C198.646 20.936 197.126 22.888 197.126 25.944C197.126 29 198.646 30.952 200.774 30.952C202.902 30.952 204.422 29 204.422 25.944C204.422 22.888 202.902 20.936 200.774 20.936ZM200.774 22.12C202.166 22.12 203.158 23.624 203.158 25.944C203.158 28.28 202.166 29.784 200.774 29.784C199.366 29.784 198.374 28.28 198.374 25.944C198.374 23.624 199.366 22.12 200.774 22.12ZM223.919 24.76H225.743V28.696H227.007V19.848H225.743V23.688H223.919V20.12H222.671V28.232H223.919V24.76ZM222.079 26.568C220.239 25.864 219.167 24.248 219.167 22.664V20.728H217.903V22.664C217.903 24.264 216.783 26.12 214.911 26.952L215.615 27.976C217.007 27.352 218.031 26.136 218.543 24.792C219.055 26.008 220.031 27.032 221.375 27.576L222.079 26.568ZM222.271 33.16C220.127 33.16 218.783 32.584 218.783 31.592C218.783 30.6 220.127 30.04 222.271 30.04C224.447 30.04 225.775 30.6 225.775 31.592C225.775 32.584 224.447 33.16 222.271 33.16ZM222.271 29.016C219.327 29.016 217.487 29.96 217.487 31.592C217.487 33.224 219.327 34.168 222.271 34.168C225.231 34.168 227.071 33.224 227.071 31.592C227.071 29.96 225.231 29.016 222.271 29.016ZM241.39 19.832H240.078V27.16H241.39V19.832ZM230.574 20.536V21.608H235.678C235.47 23.896 233.438 25.608 229.854 26.392L230.334 27.448C234.558 26.488 237.102 24.184 237.102 20.536H230.574ZM233.438 33V31.336H241.39V27.848H232.094V28.888H240.078V30.36H232.126V34.04H241.87V33H233.438ZM244.956 21.384V22.44H250.188C249.948 25.8 248.172 28.536 244.316 30.424L245.036 31.448C249.804 29.096 251.5 25.464 251.5 21.384H244.956ZM254.828 19.848V25.592H251.468V26.664H254.828V34.184H256.14V19.848H254.828ZM262.299 29.816C261.147 29.816 260.427 28.36 260.427 26.008C260.427 23.704 261.147 22.248 262.299 22.248C263.419 22.248 264.155 23.704 264.155 26.008C264.155 28.36 263.419 29.816 262.299 29.816ZM267.147 25.416H265.339C265.179 22.712 264.027 21.032 262.299 21.032C260.427 21.032 259.227 22.952 259.227 26.008C259.227 29.112 260.427 31.032 262.299 31.032C264.059 31.032 265.227 29.304 265.339 26.488H267.147V33.48H268.395V20.152H267.147V25.416ZM269.995 19.832V34.184H271.243V19.832H269.995ZM278.266 27.88C278.858 28.024 279.546 28.104 280.25 28.104C280.97 28.104 281.658 28.024 282.266 27.88V31.256H278.266V27.88ZM280.25 21.768C282.554 21.768 284.218 22.824 284.218 24.424C284.218 26.024 282.554 27.08 280.25 27.08C277.946 27.08 276.298 26.024 276.298 24.424C276.298 22.824 277.946 21.768 280.25 21.768ZM283.578 31.256V27.368C284.762 26.744 285.466 25.72 285.466 24.424C285.466 22.184 283.306 20.744 280.25 20.744C277.21 20.744 275.034 22.184 275.034 24.424C275.034 25.72 275.754 26.76 276.954 27.384V31.256H273.754V32.344H286.794V31.256H283.578Z" fill="white"/>
<path d="M85.7709 48.5525H83.8899C86.8996 46.2836 88.7389 42.4736 88.1954 38.1926C87.5684 33.3124 83.639 29.3739 78.8318 28.8174C72.3525 28.0896 66.8765 33.2268 66.8765 39.691C66.8765 43.3298 68.6322 46.5405 71.2657 48.5525H60.439C59.4358 48.5525 58.4325 48.5097 57.4293 48.3813L42.4224 46.7973C42.4224 46.7973 42.6732 54.0749 46.6026 62.1659C46.6026 62.1659 46.6026 62.1659 46.6026 62.2087C48.9435 65.9331 51.6606 68.9298 55.9244 68.9298H85.7709C91.247 68.9298 95.7198 64.3492 95.7198 58.7411C95.7198 53.1331 91.247 48.5525 85.7709 48.5525Z" fill="#FFD653"/>
<path d="M44.2617 38.5779C47.286 38.5779 49.7377 36.0671 49.7377 32.9699C49.7377 29.8727 47.286 27.3619 44.2617 27.3619C41.2374 27.3619 38.7856 29.8727 38.7856 32.9699C38.7856 36.0671 41.2374 38.5779 44.2617 38.5779Z" fill="#A1DEF9"/>
<path d="M88.1118 37.6361C88.1536 37.8502 88.1954 38.0214 88.1954 38.2354C88.6134 41.3605 87.6937 44.2716 86.0217 46.4976H87.5265C92.2919 46.4976 96.1795 42.5592 96.1795 37.6361H88.1118Z" fill="#F58220"/>
<path d="M93.3788 37.6361C93.3788 42.0455 90.2437 45.6843 86.1471 46.3692C86.1053 46.412 86.1053 46.4548 86.0635 46.4976H87.5683C92.3338 46.4976 96.2213 42.5592 96.2213 37.6361H93.3788Z" fill="#C96427"/>
<path d="M85.1857 21.4114C87.5405 21.4114 89.4495 19.4564 89.4495 17.0448C89.4495 14.6332 87.5405 12.6783 85.1857 12.6783C82.8308 12.6783 80.9219 14.6332 80.9219 17.0448C80.9219 19.4564 82.8308 21.4114 85.1857 21.4114Z" fill="#A1DEF9"/>
<path d="M59.3939 20.1699C62.9261 20.1699 65.7896 17.2374 65.7896 13.6201C65.7896 10.0027 62.9261 7.07022 59.3939 7.07022C55.8617 7.07022 52.9982 10.0027 52.9982 13.6201C52.9982 17.2374 55.8617 20.1699 59.3939 20.1699Z" fill="#A1DEF9"/>
<path d="M44.2617 27.3619C43.76 27.3619 43.3002 27.4475 42.8822 27.5331C45.2231 28.1753 46.937 30.3585 46.937 32.9271C46.937 35.5385 45.2231 37.7217 42.8822 38.3211C43.342 38.4495 43.8018 38.4923 44.2617 38.4923C47.2714 38.4923 49.7377 35.9666 49.7377 32.8843C49.7377 29.8876 47.3132 27.3619 44.2617 27.3619Z" fill="#67C7E5"/>
<path d="M85.1857 12.6354C84.6841 12.6354 84.2242 12.7211 83.8062 12.8923C85.4783 13.4916 86.6905 15.1184 86.6905 17.002C86.6905 18.9284 85.4783 20.5552 83.8062 21.1117C84.266 21.2829 84.7259 21.3685 85.1857 21.3685C87.5266 21.3685 89.4495 19.3993 89.4495 17.002C89.4495 14.6047 87.5684 12.6354 85.1857 12.6354Z" fill="#67C7E5"/>
<path d="M59.3939 7.07022C58.8923 7.07022 58.4325 7.11303 58.0145 7.24146C60.857 7.8836 62.9889 10.495 62.9889 13.6201C62.9889 16.7451 60.857 19.3565 58.0145 19.9986C58.4743 20.0843 58.9341 20.1699 59.3939 20.1699C62.9053 20.1699 65.7896 17.2588 65.7896 13.6201C65.7896 10.0241 62.9471 7.07022 59.3939 7.07022Z" fill="#67C7E5"/>
<path d="M85.7708 48.5525H83.8897C86.9413 46.2836 88.7805 42.388 88.1953 38.0642C87.6519 34.1686 84.9766 30.8722 81.4234 29.4595C79.5005 28.689 77.6195 28.6033 75.9056 28.903C80.462 29.6736 84.0987 33.4836 84.7258 38.1926C85.1856 41.7458 83.9733 44.9993 81.7996 47.311C81.3816 47.7819 81.6742 48.5097 82.3013 48.5097C87.7773 48.5097 92.2501 53.0903 92.2501 58.6983C92.2501 64.3064 87.7773 68.887 82.3013 68.887H85.8126C91.2887 68.887 95.7614 64.3064 95.7614 58.6983C95.7196 53.1331 91.2469 48.5525 85.7708 48.5525Z" fill="#F3BA21"/>
<path d="M79.2915 38.1498H82.552" stroke="#2E2E30" stroke-width="3" stroke-miterlimit="10" stroke-linecap="round" stroke-linejoin="round"/>
<path d="M85.1857 22.4816C88.1119 22.4816 90.4946 20.0415 90.4946 17.0448C90.4946 14.0482 88.1119 11.608 85.1857 11.608C82.2596 11.608 79.8769 14.0482 79.8769 17.0448C79.8769 20.0415 82.2596 22.4816 85.1857 22.4816ZM85.1857 13.7485C86.9414 13.7485 88.4045 15.2468 88.4045 17.0448C88.4045 18.8428 86.9414 20.3411 85.1857 20.3411C83.4301 20.3411 81.967 18.8428 81.967 17.0448C81.967 15.204 83.4301 13.7485 85.1857 13.7485Z" fill="#2E2E30"/>
<path d="M50.8245 32.9699C50.8245 29.2883 47.8984 26.2916 44.3034 26.2916C40.7085 26.2916 37.7823 29.2883 37.7823 32.9699C37.7823 36.6515 40.7085 39.6481 44.3034 39.6481C47.8984 39.6481 50.8245 36.6515 50.8245 32.9699ZM39.8724 32.9699C39.8724 30.4869 41.8371 28.4321 44.3034 28.4321C46.7279 28.4321 48.7344 30.4441 48.7344 32.9699C48.7344 35.4528 46.7697 37.5077 44.3034 37.5077C41.8371 37.5077 39.8724 35.4956 39.8724 32.9699Z" fill="#2E2E30"/>
<path d="M59.3939 21.2401C63.4905 21.2401 66.8346 17.8154 66.8346 13.6201C66.8346 9.42475 63.4905 6 59.3939 6C55.2973 6 51.9532 9.42475 51.9532 13.6201C51.9532 17.8154 55.2973 21.2401 59.3939 21.2401ZM59.3939 8.14047C62.32 8.14047 64.7445 10.5806 64.7445 13.6201C64.7445 16.6595 62.3618 19.0997 59.3939 19.0997C56.426 19.0997 54.0433 16.6595 54.0433 13.6201C54.0433 10.5806 56.4678 8.14047 59.3939 8.14047Z" fill="#2E2E30"/>
<path d="M83.5973 38.1498C83.5973 37.5505 83.1375 37.0796 82.5522 37.0796H79.2917C78.7065 37.0796 78.2466 37.5505 78.2466 38.1498C78.2466 38.7492 78.7065 39.2201 79.2917 39.2201H82.5522C83.0957 39.2201 83.5973 38.7492 83.5973 38.1498Z" fill="#2E2E30"/>
<path d="M99.482 67.8167H92.2085C94.9674 65.7619 96.7649 62.4655 96.7649 58.6983C96.7649 52.8334 92.3757 48.0388 86.7742 47.4823H87.4848C92.8355 47.4823 97.1829 43.0301 97.1829 37.5505C97.1829 36.9512 96.7231 36.4803 96.1378 36.4803H88.9479C87.6939 31.8569 83.7227 28.2609 78.9991 27.7043C75.6549 27.3191 72.3108 28.3893 69.8027 30.701C67.2946 32.9699 65.8733 36.2662 65.8733 39.691C65.8733 42.5592 66.8765 45.299 68.674 47.4395H60.4391C59.4776 47.4395 58.4744 47.3967 57.5547 47.2682L42.5061 45.7271C42.2135 45.6843 41.9208 45.8127 41.67 46.0268C41.461 46.2408 41.3356 46.5405 41.3356 46.8401C41.3356 47.1398 41.6282 54.4602 45.6412 62.7224C45.6412 62.7652 45.683 62.7652 45.683 62.808C46.8117 64.6488 48.1911 66.4896 49.905 67.8595H41.2102C40.625 67.8595 40.1652 68.3304 40.1652 68.9298C40.1652 69.5291 40.625 70 41.2102 70H55.9245H85.771H99.4402C100.025 70 100.485 69.5291 100.485 68.9298C100.527 68.3304 100.067 67.8167 99.482 67.8167ZM89.3659 39.3913C89.3659 39.3485 89.3659 39.2629 89.3659 39.2201C89.3659 39.0488 89.3659 38.8348 89.3241 38.6635H95.0092C94.5076 42.3023 91.5814 45.1278 87.9447 45.3418C88.9479 43.5438 89.4077 41.489 89.3659 39.3913ZM85.771 67.8167H55.9245C52.7057 67.8167 50.2394 66.0187 47.5223 61.6522C44.7216 55.8301 43.8437 50.3505 43.5929 47.996L57.3457 49.4515C58.3908 49.5799 59.4358 49.6227 60.4809 49.6227H71.3493C71.8092 49.6227 72.2272 49.3231 72.3526 48.895C72.478 48.4669 72.3526 47.9532 71.9764 47.6963C69.4683 45.8127 68.0052 42.8589 68.0052 39.691C68.0052 36.8655 69.1756 34.2114 71.2239 32.3278C73.314 30.4441 75.9893 29.5451 78.7901 29.8876C82.9284 30.3585 86.3562 33.6548 87.1086 37.8074V37.8502C87.1504 38.0214 87.1922 38.1926 87.1922 38.3639C87.234 38.6635 87.234 38.9632 87.2758 39.2201C87.2758 39.3057 87.2758 39.4341 87.2758 39.5197C87.2758 39.7338 87.2758 39.905 87.2758 40.1191C87.2758 40.3331 87.234 40.5043 87.234 40.7184C87.234 40.8468 87.1922 40.9752 87.1922 41.1037C87.1504 41.2749 87.1504 41.4461 87.1086 41.6174C87.1086 41.703 87.0668 41.7458 87.0668 41.8314C86.9832 42.2167 86.8996 42.5592 86.7742 42.9445V42.9873C86.6906 43.1585 86.6488 43.3298 86.5652 43.5438C86.5234 43.6294 86.5234 43.6722 86.4816 43.7579C86.398 44.0147 86.2726 44.2288 86.1472 44.4428C86.0636 44.5712 85.98 44.6997 85.9382 44.8709C85.8964 44.9565 85.8128 45.0849 85.771 45.1706C85.6456 45.3846 85.5202 45.5987 85.353 45.7699C84.8095 46.4977 84.1407 47.1826 83.3883 47.7391C83.0121 47.996 82.8866 48.5097 83.0121 48.9378C83.1375 49.3659 83.5555 49.6655 84.0153 49.6655H85.8964C90.7872 49.6655 94.8002 53.7324 94.8002 58.7839C94.6748 63.7498 90.7036 67.8167 85.771 67.8167Z" fill="#2E2E30"/>
<path d="M35.8595 67.5599H32.2645C31.6793 67.5599 31.2195 68.0308 31.2195 68.6301C31.2195 69.2294 31.6793 69.7003 32.2645 69.7003H35.8595C36.4447 69.7003 36.9045 69.2294 36.9045 68.6301C36.9045 68.0308 36.4447 67.5599 35.8595 67.5599Z" fill="#2E2E30"/>
<rect x="153" y="46" width="82.9268" height="20" rx="10" fill="white"/>
<path d="M162.999 60H164.159V56.83H166.879V55.86H164.159V53.61H167.359V52.64H162.999V60ZM170.687 60.13C171.407 60.13 172.037 59.89 172.547 59.55L172.147 58.82C171.747 59.08 171.327 59.23 170.837 59.23C169.887 59.23 169.227 58.6 169.137 57.55H172.707C172.737 57.42 172.757 57.19 172.757 56.97C172.757 55.41 171.977 54.36 170.517 54.36C169.227 54.36 168.007 55.47 168.007 57.26C168.007 59.07 169.197 60.13 170.687 60.13ZM169.127 56.76C169.237 55.79 169.847 55.26 170.537 55.26C171.337 55.26 171.767 55.81 171.767 56.76H169.127ZM176.342 60.13C177.062 60.13 177.692 59.89 178.202 59.55L177.802 58.82C177.402 59.08 176.982 59.23 176.492 59.23C175.542 59.23 174.882 58.6 174.792 57.55H178.362C178.392 57.42 178.412 57.19 178.412 56.97C178.412 55.41 177.632 54.36 176.172 54.36C174.882 54.36 173.662 55.47 173.662 57.26C173.662 59.07 174.852 60.13 176.342 60.13ZM174.782 56.76C174.892 55.79 175.502 55.26 176.192 55.26C176.992 55.26 177.422 55.81 177.422 56.76H174.782ZM180.846 60.13C181.126 60.13 181.326 60.09 181.466 60.04L181.316 59.17C181.216 59.19 181.176 59.19 181.126 59.19C180.986 59.19 180.846 59.08 180.846 58.77V52.03H179.706V58.71C179.706 59.6 180.016 60.13 180.846 60.13ZM182.684 60H183.824V54.5H182.684V60ZM183.254 53.47C183.674 53.47 183.994 53.19 183.994 52.79C183.994 52.38 183.674 52.11 183.254 52.11C182.834 52.11 182.524 52.38 182.524 52.79C182.524 53.19 182.834 53.47 183.254 53.47ZM185.556 60H186.696V56.1C187.186 55.61 187.536 55.35 188.046 55.35C188.696 55.35 188.976 55.73 188.976 56.68V60H190.126V56.54C190.126 55.14 189.606 54.36 188.436 54.36C187.686 54.36 187.126 54.77 186.616 55.26H186.586L186.496 54.5H185.556V60ZM193.676 62.47C195.436 62.47 196.556 61.61 196.556 60.55C196.556 59.61 195.876 59.21 194.576 59.21H193.566C192.866 59.21 192.646 59 192.646 58.67C192.646 58.41 192.766 58.25 192.946 58.09C193.186 58.2 193.466 58.26 193.716 58.26C194.866 58.26 195.776 57.57 195.776 56.37C195.776 55.95 195.626 55.58 195.416 55.36H196.466V54.5H194.516C194.306 54.42 194.026 54.36 193.716 54.36C192.576 54.36 191.586 55.09 191.586 56.34C191.586 56.99 191.936 57.51 192.306 57.8V57.84C192.006 58.06 191.696 58.43 191.696 58.86C191.696 59.31 191.916 59.6 192.196 59.77V59.82C191.686 60.13 191.396 60.56 191.396 61.02C191.396 61.98 192.356 62.47 193.676 62.47ZM193.716 57.52C193.146 57.52 192.676 57.07 192.676 56.34C192.676 55.59 193.136 55.17 193.716 55.17C194.296 55.17 194.756 55.6 194.756 56.34C194.756 57.07 194.286 57.52 193.716 57.52ZM193.846 61.71C192.936 61.71 192.376 61.39 192.376 60.85C192.376 60.57 192.516 60.29 192.846 60.05C193.076 60.1 193.326 60.13 193.586 60.13H194.416C195.086 60.13 195.446 60.27 195.446 60.73C195.446 61.24 194.806 61.71 193.846 61.71ZM199.923 60H204.193V59.02H201.083V52.64H199.923V60ZM206.892 60.13C207.652 60.13 208.192 59.75 208.692 59.17H208.722L208.812 60H209.752V54.5H208.602V58.32C208.142 58.9 207.792 59.14 207.282 59.14C206.632 59.14 206.362 58.77 206.362 57.82V54.5H205.212V57.96C205.212 59.36 205.722 60.13 206.892 60.13ZM213.723 60.13C214.353 60.13 215.003 59.9 215.503 59.45L215.033 58.69C214.703 58.97 214.293 59.19 213.833 59.19C212.913 59.19 212.283 58.42 212.283 57.26C212.283 56.09 212.943 55.31 213.863 55.31C214.243 55.31 214.553 55.47 214.853 55.74L215.423 54.99C215.023 54.64 214.513 54.36 213.813 54.36C212.363 54.36 211.093 55.42 211.093 57.26C211.093 59.08 212.233 60.13 213.723 60.13ZM216.649 60H217.769V58.58L218.699 57.51L220.189 60H221.439L219.359 56.73L221.229 54.5H219.959L217.799 57.17H217.769V52.03H216.649V60ZM226.841 54.5H225.721L224.841 57.33L224.411 58.88H224.361C224.191 58.37 224.021 57.82 223.861 57.33L222.841 54.5H221.661L223.841 59.96L223.731 60.34C223.531 60.93 223.181 61.37 222.581 61.37C222.441 61.37 222.281 61.32 222.181 61.29L221.961 62.19C222.151 62.26 222.371 62.3 222.651 62.3C223.811 62.3 224.391 61.51 224.821 60.33L226.841 54.5Z" fill="#2F80ED"/>
</svg>
